<svg width="233" height="60" viewBox="0 0 233 60" fill="none" xmlns="http://www.w3.org/2000/svg">
<g id="doc 1">
<path id="Vector" d="M46.25 56.25H13.75C11.6788 56.25 10 54.5712 10 52.5V7.5C10 5.42875 11.6788 3.75 13.75 3.75H37.5L50 16.25V52.5C50 54.5712 48.3212 56.25 46.25 56.25Z" fill="#3371FF"/>
<path id="Vector_2" d="M50 16.25H37.5V3.75L50 16.25Z" fill="#BBDEFB"/>
<path id="Vector_3" d="M37.5 16.25L50 28.75V16.25H37.5Z" fill="#1565C0"/>
<path id="Vector_4" d="M18.75 28.75H41.25V31.25H18.75V28.75ZM18.75 33.75H41.25V36.25H18.75V33.75ZM18.75 38.75H41.25V41.25H18.75V38.75ZM18.75 43.75H31.25V46.25H18.75V43.75Z" fill="#E3F2FD"/>
</g>
<path id="LiveDocs" d="M59.8693 47V17.9091H65.1392V42.5824H77.9517V47H59.8693ZM82.2983 47V25.1818H87.4403V47H82.2983ZM84.8835 22.0852C84.0691 22.0852 83.3684 21.8153 82.7812 21.2756C82.1941 20.7263 81.9006 20.0682 81.9006 19.3011C81.9006 18.5246 82.1941 17.8665 82.7812 17.3267C83.3684 16.7775 84.0691 16.5028 84.8835 16.5028C85.7074 16.5028 86.4081 16.7775 86.9858 17.3267C87.5729 17.8665 87.8665 18.5246 87.8665 19.3011C87.8665 20.0682 87.5729 20.7263 86.9858 21.2756C86.4081 21.8153 85.7074 22.0852 84.8835 22.0852ZM112.217 25.1818L104.447 47H98.7649L90.995 25.1818H96.478L101.492 41.3892H101.719L106.748 25.1818H112.217ZM124.692 47.4261C122.504 47.4261 120.615 46.9716 119.024 46.0625C117.443 45.1439 116.226 43.8466 115.374 42.1705C114.521 40.4848 114.095 38.5009 114.095 36.2188C114.095 33.9744 114.521 32.0047 115.374 30.3097C116.235 28.6051 117.438 27.2794 118.982 26.3324C120.525 25.3759 122.339 24.8977 124.422 24.8977C125.767 24.8977 127.036 25.1155 128.229 25.5511C129.431 25.9773 130.492 26.6402 131.411 27.5398C132.339 28.4394 133.068 29.5852 133.598 30.9773C134.128 32.3598 134.393 34.0076 134.393 35.9205V37.4972H116.51V34.0312H129.464C129.455 33.0464 129.242 32.1705 128.825 31.4034C128.409 30.6269 127.826 30.0161 127.078 29.571C126.339 29.1259 125.478 28.9034 124.493 28.9034C123.442 28.9034 122.518 29.1591 121.723 29.6705C120.928 30.1723 120.307 30.8352 119.862 31.6591C119.427 32.4735 119.204 33.3684 119.195 34.3438V37.3693C119.195 38.6383 119.427 39.7273 119.891 40.6364C120.355 41.536 121.003 42.2273 121.837 42.7102C122.67 43.1837 123.645 43.4205 124.763 43.4205C125.511 43.4205 126.188 43.3163 126.794 43.108C127.4 42.8902 127.926 42.5729 128.371 42.1562C128.816 41.7396 129.152 41.2235 129.379 40.608L134.18 41.1477C133.877 42.4167 133.3 43.5246 132.447 44.4716C131.605 45.4091 130.525 46.1383 129.209 46.6591C127.893 47.1705 126.387 47.4261 124.692 47.4261ZM148.829 47H138.971V17.9091H149.028C151.916 17.9091 154.397 18.4915 156.471 19.6562C158.554 20.8116 160.155 22.4735 161.272 24.642C162.389 26.8106 162.948 29.4053 162.948 32.4261C162.948 35.4564 162.385 38.0606 161.258 40.2386C160.14 42.4167 158.526 44.0881 156.414 45.2528C154.312 46.4176 151.783 47 148.829 47ZM144.241 42.4403H148.573C150.6 42.4403 152.29 42.071 153.644 41.3324C154.998 40.5843 156.016 39.4716 156.698 37.9943C157.38 36.5076 157.721 34.6515 157.721 32.4261C157.721 30.2008 157.38 28.3542 156.698 26.8864C156.016 25.4091 155.008 24.3059 153.673 23.5767C152.347 22.8381 150.699 22.4688 148.729 22.4688H144.241V42.4403ZM177.245 47.4261C175.114 47.4261 173.268 46.9574 171.705 46.0199C170.143 45.0824 168.931 43.7708 168.069 42.0852C167.217 40.3996 166.79 38.4299 166.79 36.1761C166.79 33.9223 167.217 31.9479 168.069 30.2528C168.931 28.5578 170.143 27.2415 171.705 26.304C173.268 25.3665 175.114 24.8977 177.245 24.8977C179.376 24.8977 181.222 25.3665 182.785 26.304C184.347 27.2415 185.555 28.5578 186.407 30.2528C187.269 31.9479 187.7 33.9223 187.7 36.1761C187.7 38.4299 187.269 40.3996 186.407 42.0852C185.555 43.7708 184.347 45.0824 182.785 46.0199C181.222 46.9574 179.376 47.4261 177.245 47.4261ZM177.273 43.3068C178.429 43.3068 179.395 42.9896 180.171 42.3551C180.948 41.7112 181.525 40.8494 181.904 39.7699C182.292 38.6903 182.487 37.4877 182.487 36.1619C182.487 34.8267 182.292 33.6193 181.904 32.5398C181.525 31.4508 180.948 30.5843 180.171 29.9403C179.395 29.2964 178.429 28.9744 177.273 28.9744C176.09 28.9744 175.105 29.2964 174.319 29.9403C173.542 30.5843 172.96 31.4508 172.572 32.5398C172.193 33.6193 172.004 34.8267 172.004 36.1619C172.004 37.4877 172.193 38.6903 172.572 39.7699C172.96 40.8494 173.542 41.7112 174.319 42.3551C175.105 42.9896 176.09 43.3068 177.273 43.3068ZM201.581 47.4261C199.403 47.4261 197.533 46.9479 195.97 45.9915C194.417 45.035 193.219 43.714 192.376 42.0284C191.543 40.3333 191.126 38.3826 191.126 36.1761C191.126 33.9602 191.553 32.0047 192.405 30.3097C193.257 28.6051 194.46 27.2794 196.013 26.3324C197.575 25.3759 199.422 24.8977 201.553 24.8977C203.323 24.8977 204.891 25.2244 206.254 25.8778C207.627 26.5218 208.721 27.4356 209.536 28.6193C210.35 29.7936 210.814 31.1667 210.928 32.7386H206.013C205.814 31.6875 205.34 30.8116 204.592 30.1108C203.854 29.4006 202.864 29.0455 201.624 29.0455C200.572 29.0455 199.649 29.3295 198.854 29.8977C198.058 30.4564 197.438 31.2614 196.993 32.3125C196.557 33.3636 196.339 34.6231 196.339 36.0909C196.339 37.5777 196.557 38.8561 196.993 39.9261C197.429 40.9867 198.039 41.8059 198.825 42.3835C199.621 42.9517 200.554 43.2358 201.624 43.2358C202.381 43.2358 203.058 43.0937 203.655 42.8097C204.261 42.5161 204.768 42.0947 205.175 41.5455C205.582 40.9962 205.861 40.3286 206.013 39.5426H210.928C210.804 41.0862 210.35 42.4545 209.564 43.6477C208.778 44.8314 207.708 45.7595 206.354 46.4318C205 47.0947 203.409 47.4261 201.581 47.4261ZM232.394 30.9489L227.707 31.4602C227.574 30.9867 227.342 30.5417 227.011 30.125C226.689 29.7083 226.253 29.3722 225.704 29.1165C225.155 28.8608 224.482 28.733 223.687 28.733C222.617 28.733 221.717 28.965 220.988 29.429C220.268 29.893 219.913 30.4943 219.923 31.233C219.913 31.8674 220.145 32.3835 220.619 32.7812C221.102 33.179 221.897 33.5057 223.005 33.7614L226.727 34.5568C228.791 35.0019 230.325 35.7074 231.329 36.6733C232.342 37.6392 232.853 38.9034 232.863 40.4659C232.853 41.839 232.451 43.0511 231.656 44.1023C230.87 45.1439 229.776 45.9583 228.374 46.5455C226.973 47.1326 225.363 47.4261 223.545 47.4261C220.874 47.4261 218.725 46.8674 217.096 45.75C215.467 44.6231 214.496 43.0559 214.184 41.0483L219.198 40.5653C219.425 41.5502 219.908 42.2936 220.647 42.7955C221.386 43.2973 222.347 43.5483 223.531 43.5483C224.752 43.5483 225.732 43.2973 226.471 42.7955C227.219 42.2936 227.593 41.6733 227.593 40.9347C227.593 40.3097 227.352 39.7936 226.869 39.3864C226.395 38.9792 225.656 38.6667 224.653 38.4489L220.931 37.6676C218.838 37.232 217.29 36.4981 216.286 35.4659C215.282 34.4242 214.785 33.108 214.795 31.517C214.785 30.1723 215.15 29.0076 215.888 28.0227C216.637 27.0284 217.674 26.2614 218.999 25.7216C220.335 25.1723 221.873 24.8977 223.616 24.8977C226.173 24.8977 228.185 25.4422 229.653 26.5312C231.13 27.6203 232.044 29.0928 232.394 30.9489Z" fill="white"/>
</svg>
